<svg width="24" height="36" viewBox="0 0 24 36" fill="none" xmlns="http://www.w3.org/2000/svg">
<path d="M22.9264 8.42969C22.9264 10.5703 22.278 12.3906 20.9811 13.8906C19.6842 15.3906 17.8639 16.4219 15.5202 16.9844V17.125C18.2858 17.4688 20.3796 18.3125 21.8014 19.6562C23.2233 20.9844 23.9342 22.7812 23.9342 25.0469C23.9342 28.3438 22.7389 30.9141 20.3483 32.7578C17.9577 34.5859 14.5436 35.5 10.1061 35.5C6.38737 35.5 3.09049 34.8828 0.215494 33.6484V27.4844C1.54362 28.1562 3.00456 28.7031 4.59831 29.125C6.19206 29.5469 7.77018 29.7578 9.33268 29.7578C11.7233 29.7578 13.4889 29.3516 14.6296 28.5391C15.7702 27.7266 16.3405 26.4219 16.3405 24.625C16.3405 23.0156 15.6842 21.875 14.3717 21.2031C13.0592 20.5312 10.9655 20.1953 8.09049 20.1953H5.48893V14.6406H8.13737C10.7936 14.6406 12.7311 14.2969 13.9499 13.6094C15.1842 12.9062 15.8014 11.7109 15.8014 10.0234C15.8014 7.42969 14.1764 6.13281 10.9264 6.13281C9.80143 6.13281 8.65299 6.32031 7.48112 6.69531C6.32487 7.07031 5.03581 7.71875 3.61393 8.64062L0.262369 3.64844C3.38737 1.39844 7.11393 0.273438 11.4421 0.273438C14.9889 0.273438 17.7858 0.992188 19.8327 2.42969C21.8952 3.86719 22.9264 5.86719 22.9264 8.42969Z" fill="#2B9EEB"/>
</svg>
