<svg width="25" height="36" viewBox="0 0 25 36" fill="none" xmlns="http://www.w3.org/2000/svg">
<path d="M24.2624 35.0312H0.309244V29.9922L8.91081 21.2969C11.4577 18.6875 13.1217 16.8828 13.903 15.8828C14.6842 14.8672 15.2467 13.9297 15.5905 13.0703C15.9342 12.2109 16.1061 11.3203 16.1061 10.3984C16.1061 9.02344 15.7233 8 14.9577 7.32812C14.2077 6.65625 13.1999 6.32031 11.9342 6.32031C10.6061 6.32031 9.31706 6.625 8.06706 7.23438C6.81706 7.84375 5.51237 8.71094 4.15299 9.83594L0.215494 5.17188C1.90299 3.73438 3.30143 2.71875 4.41081 2.125C5.52018 1.53125 6.73112 1.07812 8.04362 0.765625C9.35612 0.4375 10.8249 0.273438 12.4499 0.273438C14.5905 0.273438 16.4811 0.664063 18.1217 1.44531C19.7624 2.22656 21.0358 3.32031 21.9421 4.72656C22.8483 6.13281 23.3014 7.74219 23.3014 9.55469C23.3014 11.1328 23.0202 12.6172 22.4577 14.0078C21.9108 15.3828 21.0514 16.7969 19.8796 18.25C18.7233 19.7031 16.6764 21.7734 13.7389 24.4609L9.33268 28.6094V28.9375H24.2624V35.0312Z" fill="#2B9EEB"/>
</svg>
